# xmcd
#
# Track frame offsets:
#	150
#	15688
#	31732
#	52160
#	70498
#	88310
#	118440
#	136291
#	153410
#	169440
#	191562
#	206980
#	233911
#	251395
#
# Disc length: 3726 seconds
#
# Revision: 1
# Processed by: cddbd v1.5.2PL0 Copyright (c) Steve Scherf et al.
# Submitted via: audiograbber 1.83.01
#
DISCID=d30e8c0e
DTITLE=Keith Thompson - Little Red Rooster
DYEAR=2020
DGENRE=Blues Rock
TTITLE0=Key to the Highway
TTITLE1=All Your Love
TTITLE2=Little Red Rooster
TTITLE3=I'll Carry You
TTITLE4=Can't Be Satisfied
TTITLE5=Cryin' Shame
TTITLE6=Backyard Blues
TTITLE7=Bright Lights, Big City
TTITLE8=I'm Tore Down
TTITLE9=Hoochie Coochie Man
TTITLE10=My Babe
TTITLE11=Pennies on Your Eyes
TTITLE12=Mystery Train
TTITLE13=White Room
EXTD=
EXTT0=
EXTT1=
EXTT2=
EXTT3=
EXTT4=
EXTT5=
EXTT6=
EXTT7=
EXTT8=
EXTT9=
EXTT10=
EXTT11=
EXTT12=
EXTT13=
PLAYORDER=
